<svg width="40" height="40" viewBox="0 0 40 40" fill="none" xmlns="http://www.w3.org/2000/svg">
<path fill-rule="evenodd" clip-rule="evenodd" d="M16.5539 25.3847C17.6629 25.2539 18.5936 26.1507 18.7728 27.0646C18.9531 27.9848 18.1573 29.1334 17.1012 29.2998C15.9564 29.4803 15.0078 28.5374 14.8626 27.6149C14.6827 26.4728 15.5934 25.4981 16.5539 25.3847ZM4.72743 25.3997C5.82603 25.1999 6.77288 26.1784 6.91763 27.0607C7.10211 28.1856 6.16339 29.1491 5.24431 29.2905C4.14743 29.4594 3.15894 28.4847 3.01346 27.61C2.85297 26.645 3.68792 25.5886 4.72743 25.3997ZM10.6216 25.4059C11.694 25.1917 12.6752 26.1588 12.837 27.026C13.0468 28.1507 12.1167 29.1193 11.2036 29.2838C10.0545 29.4908 9.11582 28.5449 8.95527 27.6283C8.75011 26.4574 9.70727 25.5885 10.6216 25.4059ZM26.4605 27.7847L26.4896 27.6465C26.3533 27.6367 25.9464 27.6725 25.8807 27.572C24.0377 27.6173 21.5654 26.7411 20.1845 26.0492C17.1266 24.5172 14.6305 21.7772 13.3618 18.5509C12.5896 16.5873 12.3112 14.7597 12.4112 12.4258C11.0705 12.4294 9.22052 12.9631 8.14836 13.423C5.77765 14.44 3.83009 15.9936 2.34819 18.1412C-0.179366 21.8042 -0.688381 26.4171 0.927631 30.5733C1.57565 32.2398 2.42592 33.0001 2.40986 34.3372C2.39816 35.3138 1.49118 37.2601 1.10133 38.2308C0.97251 38.5516 0.856774 38.8493 0.724712 39.179C0.63515 39.4025 0.401628 40.0206 1.00358 39.9996C1.21766 39.9921 6.46823 38.47 7.18499 38.2999C8.15199 38.0704 8.59399 38.1719 9.46105 38.4351C11.6795 39.1088 14.1126 39.2154 16.3607 38.6713C20.4598 37.6793 23.4635 35.1057 25.2068 31.7394C25.6252 30.9315 26.5346 28.5992 26.4605 27.7847Z" fill="white"/>
<path fill-rule="evenodd" clip-rule="evenodd" d="M28.6477 15.4666C28.1949 15.4932 27.5488 15.5476 27.2293 15.3024C26.8649 15.0227 27.0989 14.4403 27.3152 14.146C27.8222 13.4565 28.739 14.1073 28.6477 15.4666ZM27.5125 17.1434L28.1663 17.1577C28.0836 17.3045 27.9897 17.3622 27.852 17.4442C27.3777 18.0131 25.2443 18.1679 25.0503 18.2792L25.3999 19.981C25.5294 20.0372 25.6682 20.0092 25.8168 19.9953C26.6824 19.9145 27.6829 19.6435 28.4187 19.2217C28.643 19.0931 28.8155 18.9528 28.9969 18.8273C29.6427 18.3806 29.8723 17.7087 30.1754 17.1765C32.2859 17.1841 35.3243 17.4891 36.1334 15.8384C36.6038 14.8787 36.0031 13.7248 35.5422 13.1388C34.6863 12.0509 34.5027 12.1055 33.7255 11.3233C33.7332 11.3155 33.7442 11.3053 33.7495 11.3006C33.9853 11.0962 35.1566 10.5334 35.4216 10.4041C35.8984 10.1717 36.7106 9.77146 37.2172 9.61349L36.4759 8.06299C35.8169 8.23384 32.4735 9.96277 31.892 10.544C31.6985 10.7375 31.6463 11.119 31.6272 11.4601C31.6002 11.9434 32.1374 12.2173 32.6596 12.7495C33.1039 13.2021 34.0898 13.791 34.3193 14.626C34.5479 15.4574 33.4224 15.3975 32.8052 15.3973C32.021 15.397 31.2379 15.3946 30.4538 15.3971C30.4125 14.1564 29.9804 13.113 29.3231 12.5481C27.4258 10.9172 25.1432 13.1632 25.2926 15.4325C25.3784 16.7348 26.5424 17.2109 27.5125 17.1434Z" fill="#5B42F6"/>
<path fill-rule="evenodd" clip-rule="evenodd" d="M17.8138 14.5853L16.2468 14.0607C16.0097 14.7579 15.78 15.1683 15.6617 16.0205C15.5533 16.801 15.5791 17.5647 15.9013 18.2224C16.4062 19.2529 17.6073 19.9207 19.1827 20.021C20.9384 20.1327 22.1885 19.6439 22.9559 18.6695C23.7122 17.7092 24.0563 16.1866 24.0109 14.6363L23.7842 7.82275L21.9952 7.82348C22.0242 9.40738 22.1086 11.0214 22.1687 12.603C22.2188 13.9208 22.4092 16.0746 21.9059 17.1785C21.6455 17.7499 21.2432 18.0936 20.5103 18.2552C19.8556 18.3997 18.9473 18.3419 18.3835 18.0859C16.6571 17.3021 17.6573 15.3335 17.8138 14.5853Z" fill="#5B42F6"/>
<path fill-rule="evenodd" clip-rule="evenodd" d="M16.5541 25.3846C15.5935 25.4979 14.6829 26.4727 14.8627 27.6147C15.0079 28.5372 15.9566 29.4801 17.1014 29.2997C18.1575 29.1333 18.9533 27.9847 18.7729 27.0644C18.5938 26.1506 17.6631 25.2538 16.5541 25.3846Z" fill="#5B42F6"/>
<path fill-rule="evenodd" clip-rule="evenodd" d="M10.6216 25.4059C9.70729 25.5885 8.75013 26.4574 8.9553 27.6283C9.11585 28.5449 10.0546 29.4908 11.2037 29.2838C12.1167 29.1193 13.0469 28.1507 12.837 27.026C12.6752 26.1588 11.694 25.1917 10.6216 25.4059Z" fill="#5B42F6"/>
<path fill-rule="evenodd" clip-rule="evenodd" d="M4.72722 25.3998C3.68771 25.5887 2.85276 26.6451 3.01325 27.6101C3.15873 28.4848 4.14722 29.4595 5.2441 29.2906C6.16319 29.1492 7.1019 28.1857 6.91742 27.0608C6.77267 26.1785 5.82582 25.2 4.72722 25.3998Z" fill="#5B42F6"/>
<path fill-rule="evenodd" clip-rule="evenodd" d="M31.3897 9.6691C31.5536 9.61265 31.7933 9.4496 31.9733 9.34503C32.1651 9.23366 32.3538 9.13794 32.5416 9.02849L34.8477 7.79915C35.2344 7.59999 35.6755 7.41495 36.0271 7.21103L35.4615 6.10791C35.0221 6.26701 33.6001 7.06566 33.0645 7.34134C32.3076 7.73096 31.3837 8.3212 30.7725 8.62732C30.8237 8.7942 31.2646 9.52888 31.3897 9.6691Z" fill="#5B42F6"/>
<path fill-rule="evenodd" clip-rule="evenodd" d="M27.8519 17.4443C27.8597 17.4344 27.8713 17.4067 27.8755 17.4148C27.8796 17.4227 27.8934 17.3925 27.8991 17.3867L28.1028 17.2C27.9215 17.2 27.6402 17.2225 27.5124 17.1435C26.5423 17.211 25.3783 16.7349 25.2925 15.4326C25.1431 13.1633 27.4258 10.9173 29.323 12.5482C29.9803 13.1131 30.4124 14.1565 30.4537 15.3972C31.2378 15.3947 32.0209 15.3971 32.8051 15.3974C33.4224 15.3976 34.5478 15.4575 34.3192 14.6261C34.0897 13.7911 33.1038 13.2022 32.6595 12.7496C32.1374 12.2174 31.6001 11.9435 31.6272 11.4602C31.6462 11.1191 31.6984 10.7376 31.8919 10.5441C32.4735 9.96287 35.8169 8.23394 36.4759 8.06309L37.2171 9.61359C36.7106 9.77156 35.8984 10.1718 35.4215 10.4042C35.1565 10.5335 33.9852 11.0963 33.7494 11.3007C33.7441 11.3054 33.7331 11.3156 33.7254 11.3234C34.5027 12.1056 34.6863 12.051 35.5421 13.1389C36.0031 13.7249 36.6038 14.8788 36.1333 15.8385C35.3242 17.4892 32.2858 17.1842 30.1753 17.1766C29.8723 17.7088 29.6426 18.3807 28.9968 18.8274C28.8154 18.9529 28.6429 19.0932 28.4186 19.2218C27.6828 19.6436 26.6823 19.9146 25.8167 19.9955C25.6681 20.0093 25.5293 20.0373 25.3998 19.9811L25.0502 18.2793C25.2442 18.168 27.3776 18.0132 27.8519 17.4443ZM21.9951 7.82332L23.7842 7.8226L24.0108 14.6361C24.0563 16.1864 23.7121 17.709 22.9559 18.6693C22.1885 19.6437 20.9384 20.1326 19.1826 20.0208C17.6073 19.9206 16.4061 19.2527 15.9013 18.2222C15.5791 17.5645 15.5532 16.8009 15.6616 16.0204C15.78 15.1682 16.0096 14.7578 16.2468 14.0605L17.8138 14.5852C17.6573 15.3333 16.6571 17.3019 18.3834 18.0857C18.9473 18.3418 19.8556 18.3995 20.5103 18.2551C21.2431 18.0934 21.6455 17.7498 21.9059 17.1784C22.4092 16.0745 22.2188 13.9206 22.1687 12.6029C22.1086 11.0212 22.0242 9.40722 21.9951 7.82332ZM31.3898 9.66924C31.2647 9.52902 30.8238 8.79434 30.7726 8.62746C31.3838 8.32134 32.3078 7.7311 33.0646 7.34148C33.6002 7.0658 35.0222 6.26715 35.4616 6.10805L36.0272 7.21117C35.6756 7.41509 35.2345 7.60013 34.8478 7.7993L32.5417 9.02863C32.354 9.13808 32.1653 9.2338 31.9734 9.34517C31.7935 9.44974 31.5537 9.61279 31.3898 9.66924ZM25.6544 0.0485273C23.5596 0.232181 21.7387 0.813902 20.1805 1.67599C19.7761 1.89972 19.4716 2.11262 19.0904 2.35285C18.9284 2.45491 18.7248 2.60113 18.5714 2.71825C16.3157 4.43959 14.7533 6.72899 13.86 9.58322C13.2534 11.5216 13.1657 13.8831 13.5822 15.9469C13.7776 16.9149 14.0597 17.7868 14.4264 18.6369C14.6 19.0394 14.8043 19.4551 15.0122 19.819C15.2187 20.1806 15.483 20.6268 15.7129 20.9299C16.7124 22.248 17.3769 23.0738 18.7719 24.0584C22.3318 26.5711 26.4291 27.346 30.7103 26.016C31.9855 25.6198 32.4886 25.8453 33.6847 26.1703C34.6083 26.4213 35.5219 26.6713 36.4531 26.9373C36.9249 27.072 37.3674 27.1962 37.8365 27.3227C38.1582 27.4095 39.0078 27.7313 39.2514 27.5657C39.6054 27.3252 39.1957 26.6134 39.0607 26.2773C38.6914 25.3575 37.7057 23.0875 37.6137 22.3782C37.4526 21.1373 37.9336 20.4769 38.3952 19.6466C41.4154 14.214 39.9192 7.61181 36.021 3.82704C33.3911 1.2735 29.6504 -0.301749 25.6544 0.0485273ZM28.6475 15.4667C28.7389 14.1073 27.8221 13.4565 27.315 14.1461C27.0988 14.4404 26.8648 15.0227 27.2291 15.3024C27.5486 15.5477 28.1947 15.4932 28.6475 15.4667Z" fill="white"/>
<path fill-rule="evenodd" clip-rule="evenodd" d="M26.4607 27.7845C26.5441 27.6963 26.5266 27.7547 26.5144 27.588L25.8809 27.5718C25.9466 27.6723 26.3535 27.6365 26.4898 27.6462L26.4607 27.7845Z" fill="#9CC3EA"/>
<path fill-rule="evenodd" clip-rule="evenodd" d="M27.8519 17.4443C27.9897 17.3623 28.0836 17.3046 28.1663 17.1578L27.5125 17.1436C27.6402 17.2225 27.9215 17.2001 28.1028 17.2001L27.8992 17.3867C27.8934 17.3925 27.8797 17.4227 27.8756 17.4148C27.8714 17.4068 27.8598 17.4344 27.8519 17.4443Z" fill="#A39D96"/>
</svg>
